<svg width="52" height="64" viewBox="0 0 52 64" fill="none" xmlns="http://www.w3.org/2000/svg">
<g id="shape">
<path id="Vector" d="M30 9.31507V0H0V64H30V54.6849C23.8545 54.6849 17.9606 52.2948 13.6152 48.0406C9.26964 43.7863 6.82836 38.0164 6.82836 32C6.82836 25.9836 9.26964 20.2135 13.6152 15.9593C17.9606 11.7051 23.8545 9.31507 30 9.31507Z" fill="#252525"/>
<path id="Vector_2" d="M30 8V54C35.8348 54 41.4306 51.5767 45.5564 47.2633C49.6822 42.95 52 37.1 52 31C52 24.9 49.6822 19.0498 45.5564 14.7366C41.4306 10.4232 35.8348 8 30 8Z" fill="#252525"/>
</g>
</svg>
